<svg version="1.1" xmlns="http://www.w3.org/2000/svg" xmlns:xlink="http://www.w3.org/1999/xlink" width="423.11213" height="129.01694" viewBox="0,0,423.11213,129.01694"><g transform="translate(-30.43722,-114.02052)"><g data-paper-data="{&quot;isPaintingLayer&quot;:true}" fill-rule="nonzero" stroke-linecap="butt" stroke-linejoin="miter" stroke-miterlimit="10" stroke-dasharray="" stroke-dashoffset="0" style="mix-blend-mode: normal"><g stroke="none" stroke-width="0.5"><g><path d="M55.7657,188.84726c4.06159,-0.49205 8.18305,-0.90524 12.20844,-0.95669c3.20046,-0.04092 6.34962,0.46882 9.51909,0.60977c-1.54495,1.51257 -2.68657,3.84497 -4.20968,5.32196l-0.05694,0.15694l-0.04531,-0.03589l-1.5148,1.90626c-0.34597,0.4289 -0.55198,0.97531 -0.55198,1.56927c0,1.38071 1.12682,2.50715 2.50753,2.50715c0.23515,0 0.46341,-0.03166 0.67916,-0.09235l2.27744,-0.5844c1.43345,0.1978 2.83934,0.52759 4.08636,1.14573c5.31675,2.63548 5.81171,8.64801 3.99359,13.69511c-3.03352,8.42107 -8.74157,14.63251 -16.63783,18.85168c-3.30463,1.02184 -5.95558,1.19643 -9.40317,1.09254l-0.68953,-0.00128c0,0 -0.16321,-0.00011 -0.40517,0.04127c-8.02765,-2.31081 -15.97597,-6.78694 -20.38335,-14.07356c-2.16574,-3.58057 -1.20935,-7.78079 -0.884,-11.49761c0.06883,-0.78633 -0.37462,-1.56765 -0.29971,-2.35343c0.20159,-2.1146 2.01558,-4.31003 3.3022,-5.83381c1.5053,-1.8437 4.80287,-3.16394 4.54135,-5.52969c-0.1504,-1.3605 -3.72151,-3.02653 -5.42171,-3.99052c0.14117,-0.00818 0.19978,-0.08355 0.31975,-0.0897c3.40553,-0.17469 6.75701,-0.5729 10.14022,-0.98659c1.36963,-0.16747 2.75796,-0.34847 4.14543,-0.52451c0.25969,0.11053 0.56952,0.18588 0.93508,0.21205c0.86136,0.06167 1.45059,-0.1966 1.84754,-0.5597z" data-paper-data="{&quot;noHover&quot;:false,&quot;origItem&quot;:[&quot;Path&quot;,{&quot;applyMatrix&quot;:true,&quot;segments&quot;:[[[398.06467,361.80157],[1.72271,0.12333],[-0.73113,-0.05234]],[[396.1979,361.37631],[0.51938,0.22106],[-2.77493,0.35209]],[[387.92239,362.41841],[2.73926,-0.33495],[-6.76641,0.82737]],[[367.66679,364.37202],[6.81107,-0.34938],[-0.23994,0.01231]],[[366.87962,364.41656],[0.28234,-0.01637],[3.4004,1.92798]],[[377.86936,372.53389],[-0.30079,-2.72101],[0.52304,4.7315]],[[368.80401,383.56861],[3.0106,-3.6874],[-2.57325,3.04755]],[[362.20823,395.21085],[0.40318,-4.2292],[-0.14982,1.57155]],[[362.80899,399.90862],[0.13766,-1.57266],[-0.6507,7.43364]],[[364.57088,422.85797],[-4.33148,-7.16114],[8.81476,14.57325]],[[405.25778,450.9418],[-16.0553,-4.62162],[0.48393,-0.08275]],[406.06642,450.85905],[[407.44254,450.8613],[0,0],[6.89519,0.20778]],[[426.20827,448.68096],[-6.60927,2.04368],[15.79251,-8.43834]],[[459.41643,411.05959],[-6.06704,16.84214],[3.63624,-10.09421]],[[451.44006,383.72906],[10.6335,5.27095],[-2.49405,-1.23628]],[[443.27525,381.45017],[2.8669,0.39561],[0,0]],[[438.72344,382.62293],[0,0],[-0.4315,0.12139]],[[437.36649,382.80925],[0.47031,0],[-2.76142,0]],[[432.36649,377.80925],[0,2.76142],[0,-1.1879]],[[433.47267,374.67238],[-0.69193,0.85781],[0,0]],[436.62015,370.69829],[436.71097,370.77022],[[436.82469,370.45621],[0,0],[3.04622,-2.95398]],[[445.12499,359.97299],[-3.08991,3.02514],[-6.33895,-0.28189]],[[426.1166,358.76874],[6.40091,-0.08183],[-8.05078,0.10292]],[[401.75153,360.68438],[8.12318,-0.9841],[-0.7939,0.72619]]],&quot;closed&quot;:true}]}" fill="#674737"/><path d="M77.09523,199.56362l0.0832,0.05464l-1.84993,2.81674c-0.44349,0.69787 -1.22342,1.16094 -2.11152,1.16094c-1.38071,0 -2.5,-1.11929 -2.5,-2.5c0,-0.21945 0.02828,-0.43229 0.08138,-0.63508l0.48405,-2.02475c-0.12771,-0.3003 -0.19838,-0.63071 -0.19838,-0.97762c0,-0.59395 0.20713,-1.13953 0.55309,-1.56843l0.11737,-0.1482c-0.04378,-0.18526 -0.06695,-0.3785 -0.06695,-0.57714c0,-0.1897 0.02113,-0.37447 0.06116,-0.55207l0.20458,-1.00017c-0.8647,0.28686 -1.91049,0.53093 -2.923,0.67934c-0.48297,0.97557 -1.04512,1.95493 -2.00029,2.33564c-1.0967,0.43713 -2.39535,0.71467 -3.61733,0.63625c-0.12995,0.50657 -0.28436,0.99021 -0.47599,1.48172l0.4457,0.15165l-1.05593,3.10343c-0.31872,1.01402 -1.26617,1.74949 -2.38539,1.74949c-0.95565,0 -1.78605,-0.5362 -2.20677,-1.32416l-1.22364,-2.19049l0.15745,-0.08796l-0.35408,-0.36347c-0.18968,-1.6701 -0.47792,-2.92509 -0.45444,-4.16828c-0.41426,0.03211 -0.82742,0.05665 -1.23965,0.07395c-0.43516,0.36724 -0.99746,0.58859 -1.61146,0.58859c-0.25193,0 -0.49516,-0.03726 -0.72448,-0.10658l-0.88637,-0.24622c-0.36429,0.06307 -0.72946,0.12183 -1.0952,0.17715c-0.08071,0.18149 -0.1824,0.35157 -0.30199,0.50718c-0.29255,1.12267 -0.53736,2.28789 -1.46307,2.84639c-0.99008,0.59734 -2.26149,0.90557 -3.47884,0.84893c-0.77507,1.19188 -1.57579,2.32916 -2.86153,2.43518c-1.27753,0.10534 -1.89716,-1.45177 -2.56471,-2.77057c-0.11694,0.1207 -0.22732,0.24337 -0.32949,0.3685c-1.28662,1.52378 -3.0963,3.70652 -3.29789,5.82112c-0.07491,0.78578 0.36921,1.56256 0.30038,2.34888c-0.32535,3.71682 -1.2848,7.8941 0.88094,11.47467c4.40738,7.28662 12.3158,11.73111 20.34345,14.04192c0.24196,-0.04137 0.40432,-0.04138 0.40432,-0.04138l0.68806,0.00113c3.4476,0.10389 6.07823,-0.06833 9.38287,-1.09017c7.89625,-4.21917 13.57056,-10.38961 16.60408,-18.81069c1.81812,-5.0471 1.32856,-11.02979 -3.98819,-13.66527c-1.03931,-0.51517 -2.18621,-0.8257 -3.36928,-1.02936c-0.05137,0.05893 -0.10349,0.11711 -0.1563,0.17458zM41.04593,191.13283c0.32466,-0.31369 0.73405,-0.54027 1.19048,-0.64203c-0.45959,0.04083 -0.91971,0.07889 -1.38063,0.11372c0.0551,0.17464 0.11909,0.35088 0.19015,0.52831zM57.87442,179.19286c-0.35721,1.51168 -0.66206,3.03306 -0.8923,4.56539c3.62958,-0.43222 7.26341,-0.77147 10.90402,-0.81948c4.14505,-0.05466 8.20004,0.59354 12.32354,0.80417c1.35756,1.0257 3.61071,1.43953 4.07269,3.07709c0.41799,1.48166 -1.21621,2.84228 -2.03499,4.14597c-0.74186,1.18122 -1.71055,2.40004 -2.73281,3.55354c2.34199,0.66653 4.82475,2.09568 6.11672,3.17324c3.66441,3.05629 5.2257,7.56901 5.0555,12.27381c-0.43471,12.0169 -10.87578,22.3263 -20.755,27.54157c-2.59107,0.8186 -4.88579,1.2478 -7.31577,1.41445c-0.87511,1.2386 -2.53123,0.88809 -2.53123,0.88809c-10.37621,-2.19709 -21.66648,-7.65895 -27.19917,-17.2774c-1.58544,-2.75626 -2.53759,-7.84746 -2.365,-11.0334c0.0611,-1.12805 0.69543,-2.16942 0.79386,-3.29483c0.0765,-0.87464 -0.3934,-1.7492 -0.27656,-2.61937c0.4283,-3.18982 2.45821,-6.05174 4.41893,-8.44262c0.36469,-0.43301 0.65516,-0.95684 0.99632,-1.41864c-2.91773,-1.34342 -7.04046,-5.32779 -5.78405,-8.11205c1.10496,-2.44863 8.72667,-1.84191 10.9102,-2.02148c3.42316,-0.28151 6.84684,-0.7307 10.27322,-1.18031c0.76479,-6.15305 2.6843,-12.12513 4.60533,-18.01502c4.42426,-13.56481 11.35906,-26.74557 20.53838,-37.72679c4.83972,-5.37467 10.13737,-9.56469 16.68655,-12.64213c1.39295,-0.65454 5.59931,-2.46579 6.91787,-1.89727c3.29323,1.41996 3.56139,8.04037 3.6098,10.84836c0.19374,11.23774 -3.83788,20.44944 -11.07214,28.76111c-2.63085,3.61463 -5.7576,6.33348 -9.09204,9.28538c-7.88756,6.98269 -14.64169,13.0164 -25.07322,15.62431l-0.10392,0.19344c0,0 -0.41721,0.25286 -0.99473,0.35086zM59.49086,173.32205c6.86151,-2.06437 11.57331,-5.67587 17.15835,-10.45979c4.45604,-3.81685 9.11616,-7.45517 12.57503,-12.23467c5.78589,-6.66849 9.26364,-13.24816 9.84809,-22.25361c0.15802,-2.43479 0.24156,-4.02405 -0.08693,-6.43493c-0.1105,-0.81105 -0.45553,-1.58311 -0.52612,-2.3986c-0.02362,-0.27281 0.5222,-0.81853 0.25078,-0.78226c-0.33668,0.045 -0.30498,0.64935 -0.59381,0.8281c-1.40744,0.87105 -3.01802,1.36381 -4.48866,2.12331c-5.06187,2.61416 -9.04382,5.99917 -12.85418,10.23531c-8.74943,10.47198 -15.34082,23.06637 -19.56029,35.99581c-0.58202,1.78343 -1.16932,3.57646 -1.72227,5.38134z" fill="#000000"/><path d="M61.18124,167.97922c4.21947,-12.92944 10.84778,-25.61208 19.59721,-36.08406c3.81035,-4.23614 7.81259,-7.61453 12.87446,-10.22869c1.47064,-0.7595 3.08485,-1.24992 4.49228,-2.12096c0.28883,-0.17875 0.25715,-0.78311 0.59382,-0.8281c0.27141,-0.03628 -0.27409,0.50968 -0.25048,0.78248c0.07059,0.81549 0.41796,1.58934 0.52846,2.40039c0.32849,2.41088 0.25061,4.00555 0.09258,6.44034c-0.58445,9.00545 -4.0541,15.63956 -9.83999,22.30804c-3.45887,4.77951 -8.17227,8.44612 -12.62831,12.26297c-5.58505,4.78392 -10.31834,8.38648 -17.17985,10.45085c0.55295,-1.80488 1.13779,-3.59982 1.7198,-5.38325z" data-paper-data="{&quot;noHover&quot;:false,&quot;origItem&quot;:[&quot;Path&quot;,{&quot;applyMatrix&quot;:true,&quot;segments&quot;:[[[409.18015,329.53634],[1.10591,-3.60975],[13.72302,-4.12874]],[[443.49685,308.61676],[-11.17009,9.56783],[8.91207,-7.6337]],[[468.64691,284.14742],[-6.91774,9.55901],[11.57177,-13.33697]],[[488.34309,239.64019],[-1.16891,18.01091],[0.31604,-4.86959]],[[488.16924,226.77032],[0.65697,4.82176],[-0.22101,-1.62209]],[[487.117,221.97313],[0.14118,1.63098],[-0.04723,-0.54561]],[[487.61857,220.40861],[0.54283,-0.07255],[-0.67335,0.08999]],[[486.43094,222.06482],[0.57766,-0.35751],[-2.81487,1.7421]],[[477.45363,226.31144],[2.94128,-1.519],[-10.12374,5.22832]],[[451.74527,246.78206],[7.62071,-8.47228],[-17.49886,20.94396]],[[412.62469,318.77367],[8.43894,-25.85888],[-1.16403,3.56686]]],&quot;closed&quot;:true}]}" fill="#ff7070"/></g><path d="M49.34098,190.21573c0.17319,2.494 -2.3208,2.66718 -2.3208,2.66718l-1.21856,0.08222c-0.09441,0.00182 -0.18886,0.00311 -0.28333,0.00385c-0.45618,0.60629 -1.18177,0.99836 -1.99894,0.99836c-0.94584,0 -1.76901,-0.52526 -2.19371,-1.3c-0.81925,-0.12114 -1.63303,-0.27642 -2.43702,-0.4617c0,0 -2.43294,-0.57515 -1.85778,-3.00809c0.57516,-2.43294 3.0081,-1.85778 3.0081,-1.85778c1.83621,0.44738 3.74612,0.68979 5.635,0.627l0.99986,-0.07183c0,0 2.49399,-0.17319 2.66718,2.3208z" fill="#000000"/></g><path d="M40.02026,212.10081c0,-1.38071 1.11929,-2.5 2.5,-2.5c1.38071,0 2.5,1.11929 2.5,2.5c0,1.38071 -1.11929,2.5 -2.5,2.5c-1.38071,0 -2.5,-1.11929 -2.5,-2.5z" fill="#000000" stroke="none" stroke-width="0.5"/><path d="M71.39659,212.88425c0,-1.38071 1.11929,-2.5 2.5,-2.5c1.38071,0 2.5,1.11929 2.5,2.5c0,1.38071 -1.11929,2.5 -2.5,2.5c-1.38071,0 -2.5,-1.11929 -2.5,-2.5z" fill="#000000" stroke="none" stroke-width="0.5"/><path d="M65.41078,216.74652c1.6678,1.86237 -0.19457,3.53018 -0.19457,3.53018l-2.03507,1.66339c-4.7731,2.01655 -8.56253,1.51339 -12.79826,-1.45708c0,0 -2.02259,-1.4694 -0.5532,-3.49199c1.4694,-2.02259 3.49199,-0.5532 3.49199,-0.5532c2.57446,1.96902 4.89045,2.36777 7.81513,0.93929l0.7438,-0.82517c0,0 1.86237,-1.6678 3.53018,0.19457z" fill="#000000" stroke="none" stroke-width="0.5"/><text transform="translate(107.73785,217.4987) scale(3.95566,3.95566)" font-size="24" xml:space="preserve" fill="#000000" fill-rule="nonzero" stroke="#000000" stroke-width="0" stroke-linecap="butt" stroke-linejoin="miter" stroke-miterlimit="10" stroke-dasharray="" stroke-dashoffset="0" font-family="monospace" font-weight="normal" text-anchor="start" style="mix-blend-mode: normal"><tspan x="0" dy="0">Inkwyl</tspan></text></g></g></svg>