<?xml version="1.0" standalone="no"?>
<!DOCTYPE svg PUBLIC "-//W3C//DTD SVG 20010904//EN"
 "http://www.w3.org/TR/2001/REC-SVG-20010904/DTD/svg10.dtd">
<svg version="1.0" xmlns="http://www.w3.org/2000/svg"
 width="251.000000pt" height="251.000000pt" viewBox="0 0 251.000000 251.000000"
 preserveAspectRatio="xMidYMid meet">
<metadata>
Created by potrace 1.14, written by Peter Selinger 2001-2017
</metadata>
<g transform="translate(0.000000,251.000000) scale(0.100000,-0.100000)"
fill="#000000" stroke="none">
<path d="M1840 2496 c-266 -98 -486 -333 -676 -721 -94 -193 -176 -434 -218
-646 -7 -30 -26 -34 -252 -49 -156 -9 -174 -17 -174 -67 0 -32 8 -45 55 -90
l56 -52 -36 -49 c-58 -81 -66 -110 -68 -250 -1 -78 3 -143 10 -168 41 -132
208 -282 396 -354 115 -45 176 -56 224 -43 21 7 63 17 94 23 107 21 286 164
376 298 61 92 86 172 87 277 0 74 -4 98 -23 137 -27 57 -87 113 -147 140 l-44
19 46 64 c56 80 55 101 -6 135 -44 25 -48 25 -267 25 -159 0 -223 3 -223 11 0
6 3 25 6 42 6 27 14 33 93 61 144 52 233 112 437 293 206 183 323 350 376 535
30 105 32 304 5 376 -26 67 -55 79 -127 53z"/>
</g>
</svg>
