<svg version="1.1" xmlns="http://www.w3.org/2000/svg" xmlns:xlink="http://www.w3.org/1999/xlink" width="339.95188" height="150.60276" viewBox="0,0,339.95188,150.60276"><g transform="translate(-94.03898,-123.77279)"><g data-paper-data="{&quot;isPaintingLayer&quot;:true}" fill-rule="nonzero" stroke-linecap="butt" stroke-linejoin="miter" stroke-miterlimit="10" stroke-dasharray="" stroke-dashoffset="0" style="mix-blend-mode: normal"><path d="M104.96744,205.45113c-1.29852,-2.14907 -1.92315,-4.43989 -2.873,-6.75186c-0.00158,-0.00384 -1.19107,-3.08095 -0.53773,-3.10449c3.01291,-0.10856 7.07891,1.08876 10.04515,1.81756c3.49647,0.01457 6.94865,0.75591 10.42091,1.00393c2.70038,0.19288 6.0618,-0.22409 8.66837,0.60482c1.72805,0.54953 3.47179,1.14893 5.26866,1.39257c1.73211,0.23486 3.49063,0.35189 5.23859,0.35322c1,0.00076 2.00309,0.03091 3.00268,0.00236c0.65089,-0.01859 2.13911,-0.68763 1.95384,-0.06338c-0.21713,0.73158 -1.19576,0.96943 -1.66514,1.57112c-1.55326,1.99106 -2.26515,2.89859 -4.31796,4.65298c2.78527,7.09573 1.96029,14.60692 1.96029,22.13672c0,7.33439 0.81952,14.509 -2.84144,21.12614c-6.29085,3.4862 -11.66239,3.49129 -18.51214,2.51862c-2.47851,-0.35195 -5.03061,-0.09497 -7.52287,-0.636c-1.64506,-0.35712 -3.80366,-1.72242 -5.27678,-2.51333c-3.31876,-1.78182 -5.29783,-5.12477 -8.89654,-6.65996c-1.79224,-6.2902 -1.54896,-12.99626 -1.54896,-19.51541c0,-2.74381 -0.59403,-6.28488 1.04817,-8.72054c1.38682,-2.05688 3.96138,-4.03639 6.01401,-5.40733c0.49547,-0.222 0.74165,-0.58123 0.85584,-0.93241c0.15695,-0.34824 0.21661,-0.79625 -0.02807,-1.31578z" data-paper-data="{&quot;noHover&quot;:false,&quot;origItem&quot;:[&quot;Path&quot;,{&quot;applyMatrix&quot;:true,&quot;segments&quot;:[[[273.58184,404.76087],[0,0],[0.48936,1.03906]],[[273.64072,407.38975],[0.3139,-0.69648],[-0.22838,0.70236]],[[271.9328,409.25053],[0.99094,-0.444],[-4.10526,2.74188]],[[259.92194,420.03781],[2.77364,-4.11376],[-3.2844,4.87132]],[[257.83332,437.44443],[0,-5.48762],[0,13.0383]],[[260.90892,476.40789],[-3.58448,-12.5804],[7.19742,3.07038]],[[278.6726,489.70329],[-6.63752,-3.56364],[2.94624,1.58182]],[[289.2075,494.72203],[-3.29012,-0.71424],[4.98452,1.08206]],[[304.22732,495.98963],[-4.95702,-0.7039],[13.6995,1.94534]],[[341.19182,490.96957],[-12.5817,6.9724],[7.32192,-13.23428]],[[346.83336,448.77777],[0,14.66878],[0,-15.0596]],[[342.93786,404.59557],[5.57054,14.19146],[4.10562,-3.50878]],[[351.57464,395.29049],[-3.10652,3.98212],[0.93876,-1.20338]],[[354.90484,392.14817],[-0.43426,1.46316],[0.37054,-1.2485]],[[351.00004,392.27777],[1.30178,-0.03718],[-1.99918,0.0571]],[[345.00004,392.27777],[2,0.00152],[-3.49592,-0.00266]],[[334.53548,391.58013],[3.46422,0.46972],[-3.59374,-0.48728]],[[324.01592,388.80323],[3.4561,1.09906],[-5.21314,-1.65782]],[[306.71136,387.59919],[5.40076,0.38576],[-6.94452,-0.49604]],[[285.90572,385.58489],[6.99294,0.02914],[-5.93248,-1.4576]],[[265.83756,381.93805],[6.02582,-0.21712],[-1.30668,0.04708]],[[266.91636,388.14457],[-0.00316,-0.00768],[1.8997,4.62394]],[[272.66792,401.64371],[-2.59704,-4.29814],[0,0]]],&quot;closed&quot;:true,&quot;fillColor&quot;:[0,0,0,1]}]}" fill="#674737" stroke="none" stroke-width="0.5"/><g stroke="none" stroke-width="0.5"><path d="M208.34454,244.8205c0.30294,0.33168 0.42555,0.69952 0.42555,0.69952c0.88046,2.67503 2.47246,7.14753 4.3017,9.22504c1.96053,2.22662 5.112,3.11724 7.60068,4.56554c1.55072,0.90245 3.24319,1.57066 4.71387,2.59838c0.90937,0.63547 1.47346,1.73546 2.46136,2.24027c3.99378,2.04082 8.79731,2.6051 12.92414,4.54376c2.56844,1.28535 9.07208,3.85937 11.62527,1.02787c0.83991,-0.93146 0.53544,-3.66859 0.81426,-4.75102c0.51873,-2.01382 1.5738,-3.84535 2.05869,-5.87377c1.16712,-4.88235 0.98474,-9.97704 1.74383,-14.91155c0.16585,-1.07793 0.79101,-2.12664 0.64558,-3.2075c-0.10743,-0.79845 -1.47272,-0.65495 -2.22223,-0.95044c-1.81547,-0.71574 -3.54778,-1.84109 -5.2941,-2.71415c-5.22648,-2.61295 -11.0339,-4.57806 -15.95767,-7.77002c-2.55024,-1.65326 -4.9082,-3.87707 -7.42568,-5.63931c-0.44641,-0.31306 -3.01547,-2.47909 -3.58507,-2.28864c-0.7526,0.25163 -0.56872,1.48366 -0.91309,2.19861c-1.30152,2.70209 -2.32891,3.92126 -3.13549,6.78376c-0.89925,3.19136 -3.48024,4.13537 -5.35942,6.41582c-2.06038,2.50034 -3.58402,5.10375 -5.42219,7.80784zM205.47331,246.69684c-0.11843,-0.05017 -0.2408,-0.11601 -0.36681,-0.20001c-1.45609,-0.97073 -0.48536,-2.42681 -0.48536,-2.42681l0.31748,-0.47541c2.11446,-3.02065 3.81556,-6.05911 6.13623,-8.81885c1.16493,-1.38533 3.06901,-2.30487 4.17011,-3.83848c0.77989,-1.08624 0.44628,-2.2565 0.80468,-3.49233c0.39675,-1.36805 1.49245,-2.42817 2.30131,-3.60066c0.69631,-1.00934 0.85385,-2.33334 1.57756,-3.32322c0.59967,-0.82022 1.13279,-1.89131 2.09676,-2.21246c2.32484,-0.77451 5.03643,1.53556 6.74166,2.7272c4.56373,3.19461 8.73379,6.73006 13.86505,8.97902c4.28341,1.87736 8.37779,3.70433 12.51847,5.96292c1.19904,0.65403 2.70196,0.72352 3.79725,1.53949c2.93961,2.18998 1.99019,4.17881 1.52551,7.1995c-0.77361,5.02803 -0.59828,10.20662 -1.79676,15.18349c-0.49386,2.05084 -1.54192,3.89966 -2.072,5.92821c-0.54255,2.07627 0.05592,4.38434 -1.54614,6.1658c-3.81952,4.24724 -11.65259,1.92677 -15.81433,-0.15232c-4.15922,-1.96095 -9.03094,-2.48152 -13.04021,-4.60277c-1.11311,-0.58893 -1.8186,-1.75729 -2.84953,-2.48052c-1.37778,-0.96655 -2.97792,-1.57114 -4.43266,-2.41746c-2.98338,-1.73564 -6.26596,-2.78206 -8.62704,-5.46614c-2.08348,-2.36851 -3.79921,-7.14928 -4.82122,-10.17819z" fill="#b9884a"/><path d="M213.7217,236.99093c1.87918,-2.28045 4.47208,-3.24019 5.37133,-6.43155c0.80658,-2.86251 1.84553,-4.08933 3.14704,-6.79142c0.34437,-0.71494 0.16354,-1.94831 0.91614,-2.19994c0.56961,-0.19045 3.14373,1.97387 3.59014,2.28693c2.51749,1.76224 4.89238,3.98434 7.44262,5.63759c4.92377,3.19196 10.77197,5.18372 15.99845,7.79667c1.74632,0.87306 3.48251,2.00816 5.29798,2.72391c0.7495,0.29549 2.11552,0.1549 2.22295,0.95336c0.14543,1.08087 -0.4788,2.13574 -0.64465,3.21367c-0.75909,4.93451 -0.58317,10.05852 -1.75029,14.94087c-0.48489,2.02842 -1.54659,3.86896 -2.06532,5.88279c-0.27882,1.08243 0.02082,3.82414 -0.81909,4.7556c-2.55319,2.83149 -9.07234,0.2662 -11.64078,-1.01915c-4.12683,-1.93867 -8.96063,-2.50216 -12.95441,-4.54298c-0.9879,-0.50482 -1.56004,-1.6079 -2.46941,-2.24338c-1.47069,-1.02772 -3.17562,-1.70458 -4.72633,-2.60703c-2.48868,-1.4483 -5.65178,-2.3557 -7.61231,-4.58232c-1.82924,-2.07751 -3.42518,-6.57112 -4.30564,-9.24615c0,0 -0.12255,-0.36923 -0.42549,-0.7009c1.83817,-2.70409 3.36669,-5.32624 5.42707,-7.82657z" data-paper-data="{&quot;noHover&quot;:false,&quot;origItem&quot;:[&quot;Path&quot;,{&quot;applyMatrix&quot;:true,&quot;segments&quot;:[[[239.67787,240.15383],[1.83817,-2.70409],[0.30294,0.33168]],[[240.10342,240.85335],[0,0],[0.88046,2.67503]],[[244.40512,250.07839],[-1.82924,-2.07751],[1.96053,2.22662]],[[252.0058,254.64393],[-2.48868,-1.4483],[1.55072,0.90245]],[[256.71968,257.24231],[-1.47069,-1.02772],[0.90937,0.63547]],[[259.18104,259.48259],[-0.9879,-0.50482],[3.99378,2.04082]],[[272.10518,264.02635],[-4.12683,-1.93867],[2.56844,1.28535]],[[283.73045,265.05422],[-2.55319,2.83149],[0.83991,-0.93146]],[[284.54471,260.3032],[-0.27882,1.08243],[0.51873,-2.01382]],[[286.60339,254.42943],[-0.48489,2.02842],[1.16712,-4.88235]],[[288.34723,239.51787],[-0.75909,4.93451],[0.16585,-1.07793]],[[288.99281,236.31037],[0.14543,1.08087],[-0.10743,-0.79845]],[[286.77058,235.35993],[0.7495,0.29549],[-1.81547,-0.71574]],[[281.47648,232.64578],[1.74632,0.87306],[-5.22648,-2.61295]],[[265.51881,224.87576],[4.92377,3.19196],[-2.55024,-1.65326]],[[258.09313,219.23645],[2.51749,1.76224],[-0.44641,-0.31306]],[[254.50805,216.9478],[0.56961,-0.19045],[-0.7526,0.25163]],[[253.59496,219.14641],[0.34437,-0.71494],[-1.30152,2.70209]],[[250.45947,225.93017],[0.80658,-2.86251],[-0.89925,3.19136]],[[245.10006,232.34599],[1.87918,-2.28045],[-2.06038,2.50034]]],&quot;closed&quot;:true}]}" fill="#cda97b"/><path d="M216.63917,249.46855c-1.62483,-0.64993 -0.9749,-2.27477 -0.9749,-2.27477l0.32674,-0.81185c1.30095,-2.84505 3.47779,-5.228 4.70935,-8.08815c0.64113,-1.48894 0.50543,-2.32355 1.52383,-3.73323c1.22342,-1.69347 2.23667,-1.90504 3.03863,-3.91268c0,0 0.67308,-1.61538 2.28846,-0.94231c1.61538,0.67308 0.94231,2.28846 0.94231,2.28846c-0.92588,2.15569 -2.12903,2.90024 -3.45246,4.64375c-0.30772,0.4054 -1.04397,2.85299 -1.13161,3.0529c-1.26451,2.8844 -3.43532,5.26668 -4.73223,8.13957l-0.26336,0.6634c0,0 -0.64993,1.62483 -2.27477,0.9749z" fill="#b9884a"/><path d="M232.16222,234.14751c1.59917,0.71074 0.88843,2.30991 0.88843,2.30991l-0.82275,1.7102c-1.63768,2.02566 -3.39758,3.5425 -4.48937,5.96384c-1.14292,2.53473 -0.83005,5.44343 -2.09804,8.03547c0,0 -0.78262,1.56525 -2.34787,0.78262c-1.56525,-0.78262 -0.78262,-2.34787 -0.78262,-2.34787c1.28852,-2.50575 0.92816,-5.33929 2.03265,-7.8972c1.17098,-2.71192 3.17935,-4.47831 4.95222,-6.72329l0.35745,-0.94525c0,0 0.71074,-1.59917 2.30991,-0.88843z" fill="#b9884a"/><path d="M231.68669,256.54973c-1.62483,-0.64993 -0.9749,-2.27477 -0.9749,-2.27477l1.0523,-2.13328c2.98795,-2.49092 1.40171,-6.64917 2.26242,-10.01093c0.53252,-2.07991 1.7728,-4.04636 2.59572,-6.02447c0,0 0.67308,-1.61538 2.28846,-0.94231c1.61538,0.67308 0.94231,2.28846 0.94231,2.28846c-0.74631,1.7885 -1.92552,3.60707 -2.42012,5.48245c-1.1758,4.45829 0.49755,8.26627 -3.34352,11.82273l-0.1279,0.81721c0,0 -0.64993,1.62483 -2.27477,0.9749z" fill="#b9884a"/><path d="M248.38994,240.6386c1.59917,0.71074 0.88843,2.30991 0.88843,2.30991l-0.43927,0.61698c-0.00074,1.05425 0.07645,3.69151 -0.3505,4.50617c-0.92839,1.77145 -3.42822,1.97703 -4.26133,3.80288c-1.12257,2.46023 -0.84893,6.02492 -0.84658,8.65629c0,0 0,1.75 -1.75,1.75c-1.75,0 -1.75,-1.75 -1.75,-1.75c0.0026,-3.17409 -0.23137,-7.31009 1.21876,-10.22688c0.94277,-1.89627 3.50598,-2.35992 4.2951,-3.8684c0.44354,-0.84786 -0.05472,-1.9132 -0.05545,-2.87007l0.74093,-2.03846c0,0 0.71074,-1.59917 2.30991,-0.88843z" fill="#b9884a"/><path d="M249.44949,264.05113c-1.75,0 -1.75,-1.75 -1.75,-1.75l0.0898,-2.02865c0.69793,-2.08881 1.72164,-4.63785 1.99814,-6.80811c0.38882,-3.05193 0.14861,-5.7779 0.9148,-8.84808c0,0 0.42444,-1.69775 2.12219,-1.27331c1.69775,0.42444 1.27331,2.12219 1.27331,2.12219c-0.75028,2.99554 -0.46389,5.55555 -0.85549,8.55984c-0.30656,2.3519 -1.38183,5.09707 -2.13255,7.35427l0.0898,0.92185c0,0 0,1.75 -1.75,1.75z" fill="#b9884a"/></g><g data-paper-data="{&quot;index&quot;:null}" stroke="none" stroke-width="0.5"><path d="M241.25628,207.29681c-0.51837,-0.28624 -1.03674,-0.57247 -1.5551,-0.85871c-2.8369,-1.56728 -6.04393,-3.00268 -8.43667,-5.23938c-3.41969,-3.19668 -5.21081,-7.88547 -8.13787,-11.48592c-1.2512,-1.53905 -3.02229,-2.652 -4.30185,-4.21502c-2.83969,-3.46874 -4.62784,-7.37536 -6.10483,-11.56219c-3.82594,-9.40117 -5.79842,-19.56817 -8.02871,-29.44336c-1.36586,-6.04767 -3.3075,-12.17597 -3.02649,-18.4128c0.88333,-0.73306 1.57008,-1.81001 2.64997,-2.19919c0.86709,-0.31249 1.83802,0.14545 2.75354,0.25181c3.19538,0.37122 5.64532,1.38137 8.38056,3.01746c7.09416,4.24337 10.16613,12.29246 13.78641,19.34034c1.71594,3.34054 3.46415,6.75185 4.51999,10.37314c4.19592,13.61607 7.22612,27.28972 10.36471,41.18662c1.26568,5.61336 3.37634,12.22251 3.57474,17.96644c0.25605,7.41291 8.03715,28.36793 5.67384,35.2781c0,0 -0.5663,1.65584 -2.22215,1.08954c-1.65584,-0.5663 -1.08954,-2.22215 -1.08954,-2.22215c2.22662,-6.51049 -5.6556,-27.01683 -5.85916,-34.00063c-0.07676,-2.63347 -0.60057,-5.48413 -1.25943,-8.33073zM240.70594,198.82066c-3.12131,-13.82041 -6.13288,-27.41637 -10.30466,-40.95721c-0.96839,-3.39705 -2.65247,-6.59742 -4.25415,-9.72632c-3.27546,-6.39867 -6.05882,-14.11635 -12.48871,-17.98022c-1.65355,-0.99366 -6.95788,-3.98286 -8.82256,-2.59619c1.06652,7.19616 2.83721,14.24682 4.43939,21.3409c1.80459,7.99027 3.60979,16.19145 6.71633,23.79039c1.35905,3.8503 2.9438,7.41232 5.55672,10.60749c1.26248,1.5438 2.98936,2.62025 4.23974,4.14023c2.85109,3.46582 4.56991,8.14178 7.87788,11.21278c2.17526,2.01943 5.15405,3.30155 7.72713,4.72169c0.17049,0.09414 0.34098,0.18829 0.51148,0.28243c-0.4284,-1.66817 -0.85018,-3.29595 -1.19859,-4.83596z" fill="#000000"/><path d="M241.92661,203.70147c-0.17049,-0.09414 -0.34134,-0.18811 -0.51183,-0.28225c-2.57307,-1.42014 -5.55846,-2.69963 -7.73372,-4.71907c-3.30797,-3.07101 -5.03597,-7.74498 -7.88706,-11.2108c-1.25038,-1.51998 -2.98775,-2.59626 -4.25023,-4.14007c-2.61292,-3.19517 -4.22865,-6.77178 -5.58769,-10.62208c-3.10654,-7.59894 -4.90823,-15.87375 -6.71281,-23.86402c-1.60218,-7.09407 -3.3626,-14.15135 -4.42911,-21.34751c1.86468,-1.38666 7.17777,1.59929 8.83132,2.59295c6.42989,3.86388 9.23463,11.58056 12.5101,17.97923c1.60168,3.1289 3.31153,6.34208 4.27992,9.73913c4.17178,13.54084 7.17249,27.21749 10.2938,41.0379c0.3484,1.54001 0.76893,3.16842 1.19733,4.83659z" data-paper-data="{&quot;noHover&quot;:false,&quot;origItem&quot;:[&quot;Path&quot;,{&quot;applyMatrix&quot;:true,&quot;segments&quot;:[[[139.87352,388.56602],[0.85679,-3.33635],[0.34098,-0.18829]],[[140.89647,388.00116],[-0.34098,0.18829],[5.14615,-2.84029]],[[156.35072,378.55778],[-4.35052,4.03887],[6.61594,-6.14201]],[[172.10648,356.13221],[-5.70217,6.93165],[2.50076,-3.03996]],[[180.58596,347.85176],[-2.52496,3.08761],[5.22584,-6.39033]],[[191.6994,326.63678],[-2.7181,7.7006],[6.21307,-15.19787]],[[205.13206,279.056],[-3.60917,15.98055],[3.20436,-14.18814]],[[214.01085,236.37421],[-2.13303,14.39232],[-3.72936,-2.77332]],[[196.36573,241.5666],[3.3071,-1.98731],[-12.85979,7.72775]],[[171.38831,277.52704],[6.55093,-12.79734],[-3.20336,6.2578]],[[162.88001,296.97969],[1.93678,-6.7941],[-8.34356,27.08168]],[[142.27069,378.89411],[6.24262,-27.64082],[-0.69681,3.08002]]],&quot;closed&quot;:true}]}" fill="#ea5757"/></g><path d="M249.52863,205.03835c1.85713,-0.46428 5.53586,-1.15444 5.53586,2.08854c0,0.83982 -0.65616,1.59366 -1.25,2.1875c-0.78127,0.78126 -3.75263,0.63818 -4.82873,0.9522c-2.53416,0.73951 -4.74563,2.09891 -6.95769,3.37459c-0.14212,0.08196 -0.34863,0.17282 -0.59511,0.26114c-0.13628,3.16887 -1.79412,9.32403 -4.92329,4.94883c-0.75216,-1.05167 0.05261,-3.18001 -0.16497,-4.20842c-0.023,-0.1087 -1.82955,0.20568 -3.26414,0.25788c-0.1403,0.02444 -0.28461,0.03717 -0.4319,0.03717c-0.18329,0 -0.36197,-0.01972 -0.53404,-0.05717c-1.12411,-0.24461 -1.96596,-1.24541 -1.96596,-2.44283c0,-1.38071 1.11929,-2.5 2.5,-2.5c0.22165,0 0.43655,0.02885 0.64118,0.08299c1.48121,-0.58888 3.2019,-0.82957 4.68615,-0.5338c0.31229,-0.16455 0.66365,-0.26494 1.03653,-0.28363c2.92675,-2.11433 7.35411,-3.37449 10.51612,-4.16499z" fill="#e29c9c" stroke="none" stroke-width="0.5"/><path d="M298.0308,179.84273l0.38988,0.09747l0.40069,0.03082l0.0577,0.01923h1.3646l0.38988,0.09747l0.40069,0.03082l0.44257,0.14753l0.04006,0.0255l0.04718,0.00539l1.1802,0.44257l0.02299,0.01586l0.02767,0.00377l0.60128,0.24051l0.75291,0.18823l0.04898,0.08571l0.09856,0.00547l0.63508,0.74093l0.17772,0.17772l0.20676,0.34461l0.04703,0.05487l0.02584,0.00861l0.0228,0.04814l0.16587,0.19351l0.14752,0.29505l0.0288,0.12959l0.01829,0.03048l-0.00635,0.02327l0.0317,0.14263l0.14294,0.30178l0.02823,0.14116l0.21011,0.26264l0.19869,0.43349l0.24371,0.40987l0.38057,1.26857l0.34608,0.69216l0.05973,0.26877l0.12957,0.24293l0.29505,1.1802v0.06096l0.02609,0.05509l0.13585,0.67928l0.13309,0.53239v0.24525l0.14861,0.4161l0.2058,0.55406l0.00357,0.03217l0.0252,0.07057l-0.01421,0.02841l0.12864,1.15777l0.12843,0.89897l0.27422,1.23399l-0.0018,0.0685l0.02732,0.06283l0.13111,0.78666l0.12331,0.49324v0.30776l0.07465,0.29857v1.9097l0.12822,1.02576l-0.01901,0.15683l0.03832,0.15326v4.42574l-0.03415,0.13657l0.01886,0.13951l-0.13223,1.1901v2.95955l-0.04365,0.17457l0.01852,0.17898l-0.1224,0.85679v3.06787l-0.09747,0.38987l-0.03082,0.40069l-0.44257,1.32773l-0.01924,0.03023v3.14678l0.01558,0.02336l-0.01558,0.0701v0.06966l-0.13932,0.55728l-0.0082,0.03692v1.60307l0.01558,0.02337l-0.01558,0.07009v0.06966l-0.13932,0.55728l-0.00821,0.03692v0.29094l-0.09747,0.38988l-0.03082,0.40069l-0.01923,0.0577v0.03688l-0.07465,0.29857v0.30777l-0.14752,0.5901l-0.12957,0.24293l-0.05972,0.26877l-0.14533,0.29065l-0.08186,0.40933l-0.06763,0.14277l-0.01211,0.15751l-0.14753,0.44258l-0.0966,0.15181l-0.03904,0.17566l-0.14753,0.29505l-0.10281,0.11995l-0.05313,0.14877l-0.20769,0.31153l-0.03924,0.11774l0.00739,0.02709l-0.03695,0.06157l-0.02203,0.06609l-0.3084,0.48463l-0.04143,0.06904l-0.08087,0.3639l-0.02479,0.04959l-0.00632,0.02529v0.87243l0.06046,0.24183l0.16527,0.27545l-0.04044,0.14827l0.07127,0.14254l0.46527,0.69791l0.03073,0.04096l0.19346,0.06449l0.15181,0.0966l0.17566,0.03904l0.29505,0.14753l0.11995,0.10281l0.14877,0.05313l0.31307,0.20871l0.35788,0.17894l0.48354,0.19342l1.0156,0.2539l0.12769,0.06811l0.14378,0.01643l0.99092,0.37159l0.29665,0.05933h1.96532l0.15326,0.03832l0.15683,-0.01901l1.14957,0.1437l1.44454,0.14445l0.09632,0.03458l0.10213,-0.00666l1.49589,0.27198l1.6935,0.13027h40.03071l0.0951,0.02378l0.09665,-0.01641l1.82209,0.14016h6.39507l0.13658,0.03414l0.1395,-0.01886l2.61334,0.29037l1.87559,0.14428l0.02791,0.0093l0.02911,-0.00426l2.95049,0.29505l0.11717,0.04207l0.12436,-0.00592l1.23251,0.2465h1.2277l0.12315,0.03079l0.12561,-0.01838l1.35118,0.13512h3.71096l0.24156,0.06039l0.24872,-0.01184l1.23251,0.2465h1.52275l0.24157,0.06039l0.24872,-0.01184l1.47525,0.29505l0.07952,0.03767l0.08798,0.00187l1.47261,0.40162l0.87859,0.12551l0.16028,0.0653l0.17297,0.00576l0.69601,0.19886h0.38749l0.45934,0.11483l0.46913,0.06397l0.35541,0.14216l0.35566,0.08891l0.46913,0.06397l0.73762,0.29505l0.086,0.06211l0.10355,0.02301l0.20983,0.10491l0.26209,0.06553l0.56076,0.12461l0.0623,0.03116l0.06966,0.01741l0.01393,0.02438l0.62189,0.31094l1.05733,0.3965l0.023,0.01586l0.02767,0.00377l1.24158,0.49663l1.2654,0.23007l1.51166,0.13743l0.08983,0.03133l0.09483,-0.00759l0.68106,0.11351h1.85844l0.15326,0.03831l0.15683,-0.01901l2.3604,0.29505l0.11208,0.04339l0.12016,-0.00316l1.23399,0.27422l1.91803,0.27401l1.42272,0.14227l0.11717,0.04206l0.12436,-0.00592l0.49488,0.09897h0.93265l0.29857,0.07465h0.30777l0.44364,0.11091l0.87596,0.1095h1.02456l0.29857,0.07465h0.30776l1.1483,0.28707l1.02772,0.22838h2.38101l0.29857,0.07465h0.30777l0.5901,0.14753l0.24293,0.12956l0.08543,0.01899l0.02327,-0.00635l0.03048,0.01829l0.12959,0.0288l0.29505,0.14753l0.20842,0.17864h3.98444l0.13698,0.03424l0.06207,-0.00477l0.03148,0.02816l1.01947,0.25487l0.76853,1.34491l0.05813,0.05202l-0.00736,0.03683l0.4307,0.75374l-0.89454,1.56546l-0.0229,0.1145l-0.06684,0.04253l-0.26572,0.46501l-0.80742,0.20185l-0.38963,0.12987l-0.40069,0.03083l-0.38988,0.09747h-3.54059l-0.45934,-0.11483l-0.23973,-0.03269h-2.44646l-0.16659,0.03332l-0.15143,0.07572l-0.1071,0.0714l-0.12001,0.12l-0.17474,0.10484l-0.09458,0.42562l-0.03116,0.06231l-0.01741,0.06966l-0.02438,0.01393l-0.07458,0.14916l-0.13284,0.15498l-0.00692,0.12453l-0.37626,0.32251l-0.32251,0.37627l-0.12453,0.00691l-0.15497,0.13284l-0.14915,0.07458l-0.01393,0.02438l-0.06966,0.01741l-0.0623,0.03115l-0.56075,0.12462l-0.55728,0.13932h-0.06966l-0.07009,0.01557l-0.02337,-0.01557h-5.11763l-0.85679,0.12239l-0.17899,-0.01852l-0.17457,0.04365h-1.75471l-0.02336,0.01557l-0.0701,-0.01557h-0.06966l-0.27398,-0.0685l-0.36715,0.12239l-0.09903,0.09902l-0.42292,0.25375l-0.09485,0.16598l-0.15859,0.03965l-0.03554,0.07109l-0.83853,0.97828l-0.09857,0.00547l-0.04898,0.08571l-1.25,0.3125h-2.80297l-0.38988,-0.09747l-0.40069,-0.03082l-0.0577,-0.01924h-0.03688l-0.38988,-0.09747l-0.40069,-0.03082l-0.0577,-0.01924h-4.25572l-0.68106,0.11351l-0.20828,-0.01667l-0.20271,0.05068h-0.33193l-0.0577,0.01924l-0.40069,0.03082l-0.38988,0.09747h-5.44282l-0.02337,0.01558l-0.07009,-0.01558h-0.06966l-0.55728,-0.13932l-0.03692,-0.00821h-0.29095l-0.38988,-0.09747l-0.40069,-0.03082l-0.0577,-0.01924h-6.53703l-1.19011,0.13224l-0.13126,-0.01774l-0.42363,0.10591h-0.16193l-0.06563,0.03281l-0.01393,0.02438l-0.06966,0.01741l-0.0623,0.03115l-0.56076,0.12462l-0.55728,0.13932h-0.06966l-0.07009,0.01558l-0.02337,-0.01558h-0.27134l-0.87596,0.1095l-0.44365,0.11091h-0.17046l-0.1598,0.05936l-1.32772,0.14753l-0.1395,-0.01886l-0.13657,0.03414h-4.86831l-0.17457,-0.04364l-0.17899,0.01852l-0.85679,-0.1224h-6.87337l-0.85679,0.1224l-0.17899,-0.01852l-0.17456,0.04364h-1.71092l-0.68106,0.11351l-0.20828,-0.01666l-0.20271,0.05068h-0.92203l-0.01379,0.00459l-0.80134,0.30051l-0.16129,0.12097l-0.16942,0.16941l-0.15429,0.09258l-0.11347,0.13966l-0.24751,0.18563l-0.05751,0.08626l-0.17586,0.15987l-0.02666,0.13334l-0.40002,0.25456l-0.35085,0.31895l-0.13566,-0.00936l-0.20051,0.1276l-0.27402,0.09134l-0.72623,0.36311l-0.26876,0.05973l-0.24293,0.12956l-0.5901,0.14753h-0.30777l-0.29858,0.07464h-9.5891l-0.15326,-0.03831l-0.15683,0.019l-1.1802,-0.14753l-0.04877,-0.01888l-0.05214,0.00417l-0.68106,-0.11351h-8.54856l-1.82209,0.14016l-0.09664,-0.01641l-0.0951,0.02378h-0.46541l-1.35118,0.13512l-0.12561,-0.01838l-0.12315,0.03079h-1.315l-0.88162,0.22041h-0.30777l-0.29857,0.07464h-5.01584l-0.29857,-0.07464h-0.30777l-0.5901,-0.14753l-0.3775,-0.20134l-0.40291,-0.14389l-0.164,-0.10934l-0.03388,-0.01129l-0.19838,-0.0496h-0.28233l-0.20271,-0.05068l-0.20828,0.01667l-0.68106,-0.11351h-1.56339l-0.12315,-0.03079l-0.12561,0.01838l-1.47525,-0.14753l-0.02984,-0.01071l-0.03148,0.00382l-1.1802,-0.14753l-0.08701,-0.03368l-0.09319,0.00444l-1.38568,-0.27714l-0.93512,-0.11689h-1.17201l-0.06223,0.03111l-0.56076,0.12462l-0.55728,0.13932h-0.06966l-0.07009,0.01557l-0.01564,-0.01043l-0.17779,0.04445l-0.35149,0.11716l-0.15751,0.01212l-0.14277,0.06762l-0.73763,0.14753l-0.24872,-0.01184l-0.24157,0.06039h-5.14777l-0.02337,0.01557l-0.07009,-0.01557h-0.06966l-0.55728,-0.13932l-0.56076,-0.12461l-0.0623,-0.03115l-0.06966,-0.01741l-0.01393,-0.02439l-0.4442,-0.2221l-0.11995,-0.10281l-0.14878,-0.05313l-0.39308,-0.26205l-0.60428,-0.36257l-0.20918,-0.10458l-0.11994,-0.10281l-0.14877,-0.05313l-0.88515,-0.5901l-0.21627,-0.2379l-0.2655,-0.18132l-1.1802,-1.32772l-0.04915,-0.09401l-0.08233,-0.0669l-0.83629,-1.11505l-0.83215,-0.97084l-0.06856,-0.13711l-0.11343,-0.10312l-0.5901,-0.88515l-0.0127,-0.03555l-0.02717,-0.0262l-0.66059,-1.05695l-0.49931,-0.62413l-0.18332,-0.39997l-0.23622,-0.3712l-0.09134,-0.27402l-0.14598,-0.29198l-0.20872,-0.31307l-0.08795,-0.24627l-0.15311,-0.212l-0.29505,-0.73762l-0.03125,-0.22916l-0.09901,-0.20902l-0.09647,-0.48237l-0.22531,-0.52572l-0.00436,-0.0025l-0.00462,-0.01845l-0.10575,-0.24675l-0.08011,-0.4967l-0.12202,-0.4881v-0.26845l-0.00303,-0.01878l0.00303,-0.00402v-0.17194l-0.23552,-1.05983l0.00725,-0.27523l-0.06678,-0.2671v-16.08019l0.07465,-0.29857v-0.30777l0.07288,-0.29152v-0.28234l0.07464,-0.29857v-0.30776l0.14752,-0.5901l0.00599,-0.01122l0.0587,-0.23477l0.12461,-0.56076l0.03116,-0.06231l0.01741,-0.06966l0.02237,-0.01279l0.05811,-0.17433l0.12423,-0.49695l0.12956,-0.24293l0.05973,-0.26876l0.24854,-0.49709l0.25643,-0.64108l0.15311,-0.212l0.08796,-0.24627l0.65438,-0.98157h-2.24965l-0.29153,0.07288h-0.30777l-0.29857,0.07465h-11.80198l-0.29857,-0.07465h-0.30776l-0.29152,-0.07288h-0.87243l-0.38988,-0.09747l-0.40069,-0.03083l-0.29492,-0.0983l-0.585,-0.117l-0.0551,-0.0261h-0.06095l-0.88163,-0.2204h-4.41303l-0.17457,-0.04364l-0.17899,0.01852l-0.85679,-0.1224h-0.2649l-0.15326,-0.03831l-0.15683,0.01901l-1.02575,-0.12822h-0.58198l-0.09758,-0.0244l-0.07576,0.03788l-0.53033,-0.1894l-0.54632,-0.13658l-0.02459,-0.04303l-0.31537,-0.07884l-0.56075,-0.12461l-0.0496,-0.02479l-0.227,-0.05675l-0.78666,-0.13111l-0.18186,-0.07906l-0.19772,-0.01521l-0.05769,-0.01924h-0.03688l-0.38988,-0.09746l-0.40069,-0.03082l-0.0577,-0.01924h-0.03688l-0.20272,-0.05068l-0.20828,0.01666l-2.65544,-0.44257l-0.09345,-0.04063h-0.1019l-0.5901,-0.14753l-0.3775,-0.20134l-0.40291,-0.1439l-0.44258,-0.29505l-0.16749,-0.18425l-0.21352,-0.12811l-1.32773,-1.32772l-0.12811,-0.21352l-0.18424,-0.1675l-0.29505,-0.44257l-0.05313,-0.14878l-0.10281,-0.11995l-0.22544,-0.45088l-0.20872,-0.31307l-0.05313,-0.14877l-0.10281,-0.11995l-0.22544,-0.45089l-0.20871,-0.31307l-0.03383,-0.09473l-0.07354,-0.04202l-0.13658,-0.54632l-0.18941,-0.53033l0.03119,-0.06236l-0.03693,-0.05803l-0.23887,-0.7166l-0.29017,-0.58033l-0.02438,-0.01394l-0.01741,-0.06966l-0.03116,-0.06231l-0.12461,-0.56076l-0.01505,-0.06019l-0.24051,-0.60128l-0.03665,-0.26874l-0.10814,-0.24873l-0.11528,-0.69167l-0.38054,-1.14164l-0.03082,-0.40069l-0.09747,-0.38988v-0.47945l-0.01923,-0.0577l-0.03082,-0.4007l-0.09747,-0.38987v-0.1844l-0.01924,-0.0577l-0.03082,-0.40069l-0.01684,-0.06737l-0.00599,-0.01122l-0.14752,-0.5901v-0.30776l-0.07465,-0.29857v-2.9349l-0.01558,-0.02336l0.01558,-0.0701v-0.06966l0.13932,-0.55728l0.0082,-0.03692v-0.586l0.0604,-0.24156l-0.01185,-0.24873l0.2465,-1.23251v-0.0319l-0.01557,-0.02337l0.01557,-0.07009v-0.06966l0.13932,-0.55728l0.12461,-0.56076l0.03082,-0.06162l-0.01318,-0.02636l0.18941,-0.53034l0.13658,-0.54632l0.07355,-0.04202l0.03383,-0.09473l0.29505,-0.44258l0.18424,-0.1675l0.12811,-0.21352l0.88515,-0.88514l0.34461,-0.20677l0.30513,-0.26154l0.22724,-0.11361l0.15571,-0.15571l0.15429,-0.09258l0.11347,-0.13966l0.5901,-0.44258l0.06547,-0.02756l0.04778,-0.05256l0.79487,-0.52992l0.65291,-0.52232l0.10057,-0.04609l0.07441,-0.08186l0.44257,-0.29505l0.21781,-0.07779l0.18414,-0.13995l1.03267,-0.44257l0.10473,-0.0169l0.0895,-0.05695l1.15917,-0.38639l0.43119,-0.21559l0.26877,-0.05973l0.24293,-0.12956l0.5901,-0.14753h0.06096l0.05509,-0.02609l0.40933,-0.08187l0.73485,-0.36742l0.01393,-0.02438l0.06966,-0.01741l0.06231,-0.03116l0.56075,-0.12461l0.55728,-0.13932h0.03688l0.0577,-0.01924l0.09774,-0.00752l0.0865,-0.04612l1.1802,-0.29505h0.06096l0.05509,-0.02609l0.585,-0.11701l0.29492,-0.09831l0.09773,-0.00751l0.0865,-0.04613l0.49696,-0.12424l0.79406,-0.26469l0.09774,-0.00751l0.08649,-0.04613l0.32387,-0.08096l0.04959,-0.0248l0.17566,-0.03903l0.15181,-0.09661l0.88515,-0.29505l0.05552,-0.00428l0.04824,-0.02783l0.80926,-0.23121l0.38228,-0.19114l0.32597,-0.07243l0.30178,-0.14295l0.73762,-0.14753l0.13568,0.00647l0.12826,-0.04475l1.62277,-0.14753l0.11421,0.01776l0.11213,-0.02803h15.04752l0.13657,0.03414l0.1395,-0.01885l1.24933,0.13882l1.54672,0.07365l0.91103,-0.22776h2.65544l0.13657,0.03414l0.13951,-0.01885l1.19011,0.13224h0.14099l0.02337,-0.01558l0.0701,0.01558h0.06966l0.55728,0.13932l0.03692,0.00821h0.5704l0.02336,-0.01558l0.0701,0.01558h0.06966l0.55728,0.13932l0.56075,0.12461l0.06231,0.03116l0.06966,0.01741l0.01278,0.02237l0.26541,0.08847l0.4161,0.26479l0.19088,0.0106l0.09135,0.10657l0.21924,0.04872l0.06231,0.03115l0.29843,0.07461h0.30776l0.29152,0.07288z" fill="#639866" stroke="#436845" stroke-width="3.5"/><path d="M251.09715,192.81699c0,-1.38071 1.11929,-2.5 2.5,-2.5c1.38071,0 2.5,1.11929 2.5,2.5c0,1.38071 -1.11929,2.5 -2.5,2.5c-1.38071,0 -2.5,-1.11929 -2.5,-2.5z" fill="#000000" stroke="none" stroke-width="0.5"/><path d="M276.17636,199.30808c0,-1.38071 1.11929,-2.5 2.5,-2.5c1.38071,0 2.5,1.11929 2.5,2.5c0,1.38071 -1.11929,2.5 -2.5,2.5c-1.38071,0 -2.5,-1.11929 -2.5,-2.5z" fill="#000000" stroke="none" stroke-width="0.5"/><g data-paper-data="{&quot;index&quot;:null}" stroke="none" stroke-width="0.5"><path d="M281.0153,161.99114c0.50881,-0.66221 5.69545,1.45476 6.33307,1.56915c4.18803,0.75129 7.78371,-0.26298 11.84091,0.48046c1.83958,0.33708 2.17349,11.1971 2.11966,12.83308c-0.01226,0.37279 -0.05576,0.79333 -0.07391,1.21471c-3.05326,-0.48515 -6.09411,-0.8912 -8.12143,-0.98561c-4.12379,-0.19203 -8.42998,-0.72075 -12.54449,-1.27948c-1.28557,-0.17457 -2.5838,-0.33335 -3.88151,-0.47797c1.8463,-3.8177 1.80995,-10.07752 4.3277,-13.35433z" data-paper-data="{&quot;noHover&quot;:false,&quot;origItem&quot;:[&quot;Path&quot;,{&quot;applyMatrix&quot;:true,&quot;segments&quot;:[[[459.8877,256.94499],[5.95877,7.75526],[-1.2042,-1.56725]],[[444.93561,260.68458],[1.50906,-0.27071],[-9.91185,1.77807]],[[417.03349,261.78382],[9.60223,-1.7595],[-4.35376,0.79778]],[[412.01858,292.04957],[-0.1274,-3.8719],[0.02903,0.88228]],[[412.1892,294.91794],[-0.04296,-0.99728],[7.22619,-1.14821]],[[431.36922,292.55205],[-4.79809,0.22343],[9.75982,-0.45449]],[[460.93311,289.56313],[-9.73786,1.32236],[3.04258,-0.41317]],[[470.11187,288.44715],[-3.07131,0.34229],[-4.36966,-9.03539]]],&quot;closed&quot;:true}]}" fill="#e4b471"/><path d="M302.95447,176.31618c0.74521,0.49874 1.17162,1.16998 1.06733,1.8337c-0.17001,1.08185 -1.6882,1.75024 -3.44195,1.54467c-0.07499,-0.01078 -0.14797,-0.02103 -0.21779,-0.02988c-2.16268,-0.27391 -4.30761,-0.69566 -6.46542,-1.01599c-5.75848,-0.85486 -11.63839,-1.0603 -17.38624,-2.19258c-1.74777,-0.3443 -3.23847,-1.166 -3.01874,-2.56427c0.42743,-2.72 5.90891,-1.14383 8.25529,-0.79262c4.51038,0.67513 17.83259,1.38776 20.88567,3.00372c0.12239,0.06477 0.2286,0.13631 0.32186,0.21325z" fill="#3f2d14"/><path d="M281.04681,162.01927c-2.51775,3.27681 -2.47369,9.49281 -4.31999,13.31051c1.29771,0.14463 2.5927,0.29696 3.87827,0.47153c4.11451,0.55873 8.36776,1.07086 12.49154,1.2629c2.02733,0.0944 5.05082,0.51449 8.10408,0.99965c0.01815,-0.42138 0.05983,-0.83917 0.07209,-1.21196c0.05384,-1.63598 -0.27935,-12.45102 -2.11893,-12.7881c-4.0572,-0.74344 -7.60137,0.28683 -11.7894,-0.46446c-0.63761,-0.11438 -5.80885,-2.24228 -6.31766,-1.58007zM305.54469,177.55438c0.00264,0.37769 -0.02408,0.79979 -0.10226,1.21253c2.23944,0.38169 4.21856,0.72801 5.47635,0.91459c2.17181,0.32219 3.36211,0.10064 4.27964,0.35305c0.80305,0.22091 1.39716,0.80488 2.25749,2.43419l-0.85673,1.38948c-0.4091,0.89195 -4.41199,0.25331 -6.2547,-0.00007c-3.46452,-0.47639 -7.20151,-1.15558 -10.66131,-1.66512c-7.99774,-1.17786 -16.17254,-1.45467 -24.16093,-2.66095c-2.29748,-0.34693 -4.58771,-0.741 -6.88607,-1.0821c-0.95279,-0.1414 -4.28583,0.47053 -5.03151,-0.5532c-2.08987,-2.86915 1.04406,-4.11146 3.29372,-3.75794c1.76013,0.27659 3.54777,0.49688 5.34504,0.69975c0.2903,-1.22314 0.76193,-2.53714 0.80731,-2.68507c1.35705,-4.42424 1.93736,-9.04921 4.70082,-12.81951c2.54952,-3.47842 7.49855,-0.36242 10.60752,0.1445c5.07017,0.82668 11.76378,-1.89621 15.50696,2.87509c1.68263,2.1448 1.65748,12.16716 1.67867,15.20077z" fill="#966a2e"/></g><path d="M135.03202,207.72121c-0.24253,-0.49205 -0.24595,-1.21352 -0.72758,-1.47614c-0.46353,-0.25275 -1.04008,0.23705 -1.56789,0.22447c-2.12013,-0.05053 -4.47331,-0.68638 -6.62291,-0.35325c-1.44936,0.22461 -2.60793,1.85772 -4.06443,1.68532c-2.20127,-0.26056 -4.68955,-3.69411 -7.01636,-4.39289c-1.20122,-0.36075 -2.49103,0.30423 -3.74214,0.39243c-2.75121,0.19395 -5.17947,0.26569 -7.41387,-0.53212c0.3236,0.75275 0.68545,1.49407 1.12377,2.21949l0.45696,1.55858c0.24468,0.51953 0.18639,0.9662 0.02944,1.31444c-0.11419,0.35118 -0.35849,0.70839 -0.85396,0.93039c-2.05263,1.37094 -4.61861,3.33676 -6.00543,5.39364c-1.6422,2.43566 -1.04431,5.9595 -1.04431,8.70331c0,6.51915 -0.25444,13.19153 1.5378,19.48173c3.59871,1.53519 5.56308,4.86588 8.88184,6.6477c1.47312,0.79091 3.62239,2.15225 5.26745,2.50937c2.49226,0.54103 5.0314,0.28185 7.50991,0.6338c6.84975,0.97267 12.1914,0.97617 18.48225,-2.51003c3.66096,-6.61714 2.82077,-13.76151 2.82077,-21.0959c0,-6.88243 0.6997,-13.7112 -1.30687,-20.25295c-2.09491,-0.01817 -3.55505,-0.14837 -5.74446,-1.0814zM101.81986,206.98539c-1.94227,-3.31786 -6.4976,-12.09361 -1.73862,-14.50997c0.95522,-0.48501 2.13876,0.13318 3.20949,0.16788c3.02627,0.09805 5.81493,0.5926 8.75643,1.34205c5.65756,-0.02579 11.62333,0.84664 17.26386,1.32618c3.2131,0.27317 6.00805,1.77811 9.31305,1.99844c2.25548,0.15036 6.53427,-0.89221 8.54564,0.1288c4.21979,2.14205 1.87814,4.66102 0.04299,7.0271c-1.03756,1.33774 -1.43615,2.89534 -3.07014,3.26816c-0.04992,0.14052 -0.115,0.2626 -0.19039,0.36868c2.72765,2.22154 1.63117,8.84185 1.63117,11.95285c0,10.68806 2.07458,23.15559 -3.84589,32.57077c-7.08377,4.46568 -13.5706,4.63255 -21.51776,3.48997c-3.30439,-0.47508 -6.76157,0.13689 -9.86772,-1.51194c-4.99406,-2.65098 -8.84675,-6.63304 -13.80642,-9.36385c-3.04049,-6.71552 -2.46221,-14.59828 -2.46221,-21.85161c0,-3.5618 -0.46591,-7.47432 1.62237,-10.63002c1.42936,-2.15998 3.9016,-4.20434 6.11416,-5.77348z" fill="#000000" stroke="none" stroke-width="0.5"/><path d="M105.33334,220.38889c0,-1.38071 1.11929,-2.5 2.5,-2.5c1.38071,0 2.5,1.11929 2.5,2.5c0,1.38071 -1.11929,2.5 -2.5,2.5c-1.38071,0 -2.5,-1.11929 -2.5,-2.5z" fill="#000000" stroke="none" stroke-width="0.5"/><path d="M131,221.72222c0,-1.38071 1.11929,-2.5 2.5,-2.5c1.38071,0 2.5,1.11929 2.5,2.5c0,1.38071 -1.11929,2.5 -2.5,2.5c-1.38071,0 -2.5,-1.11929 -2.5,-2.5z" fill="#000000" stroke="none" stroke-width="0.5"/><path d="M118.07345,234.42208c-1.11111,-0.88889 -2.22222,-1.77778 -3.33333,-2.66667c0,0 -0.12776,-0.10221 -0.2739,-0.28319c-0.43318,0 -0.86637,0 -1.29955,0h-0.00772c1.25768,2.08242 2.64152,3.75715 5.69473,3.83345c0.29163,0.00729 0.55708,-0.01042 0.80119,-0.05062c-0.00374,-0.00212 -0.00748,-0.00425 -0.01123,-0.0064zM110.04246,228.68268c0.49805,-0.71046 1.45754,-0.71046 1.45754,-0.71046h1.66667c3.27803,0 6.73974,-0.31907 10,0c1.08739,0.10642 2.54967,-0.33639 3.23744,0.51256c2.52348,3.11489 -1.74632,8.68465 -4.54257,9.84357c-6.15088,2.54926 -10.21654,-2.66057 -12.86215,-7.0391c0,0 -0.90037,-1.50061 0.60025,-2.40098c0.15404,-0.09243 0.30176,-0.15955 0.44283,-0.20559z" fill="#000000" stroke="none" stroke-width="0.5"/><path d="M119.60029,235.22375c0.00375,0.00215 0.09421,0.05408 0.09795,0.0562c-0.24411,0.0402 -0.51355,0.06383 -0.80519,0.05654c-3.05321,-0.0763 -4.51947,-1.80727 -5.77715,-3.8897l0.00775,-0.00004c0.43318,0 0.87383,-0.00968 1.30701,-0.00968c0.14614,0.18098 0.27377,0.28332 0.27377,0.28332c1.11111,0.88889 2.30043,1.83911 3.41154,2.728z" data-paper-data="{&quot;noHover&quot;:false,&quot;origItem&quot;:[&quot;Path&quot;,{&quot;applyMatrix&quot;:true,&quot;segments&quot;:[[[149.40678,229.75541],[0,0],[-1.11111,-0.88889]],[[146.07345,227.08874],[1.11111,0.88889],[0,0]],[[145.79955,226.80555],[0.14614,0.18098],[-0.43318,0]],[[144.5,226.80555],[0.43318,0],[0,0]],[[144.49228,226.80555],[0,0],[1.25768,2.08242]],[[150.18701,230.639],[-3.05321,-0.0763],[0.29163,0.00729]],[[150.98821,230.58839],[-0.24411,0.0402],[-0.00374,-0.00212]],[[150.97698,230.58198],[0.00375,0.00215],[0,0]]],&quot;closed&quot;:true}]}" fill="#ff5f5f" stroke="none" stroke-width="0.5"/></g></g></svg>